<?xml version="1.0" encoding="UTF-8"?><svg id="uuid-f3db325e-26a5-4c31-a3e5-1ef2288150ca" xmlns="http://www.w3.org/2000/svg" viewBox="0 0 500 499.999"><path d="M500,101.521c0,16.379-3.338,30.978-10.001,43.804-6.668,12.826-15.87,24.749-27.609,35.761l37.609,131.522h-48.045c-1.738,14.205-6.45,27.609-14.129,40.217-7.684,12.608-17.249,23.117-28.696,31.521-5.652,4.205-11.414,8.19-17.283,11.956-5.869,3.771-11.777,7.538-17.718,11.305-1.595,8.839-5.107,16.882-10.543,24.131-5.434,7.245-12.281,12.751-20.541,16.521-5.076,7.968-10.978,15.142-17.718,21.522-6.74,6.375-14.132,11.81-22.174,16.304-8.043,4.491-16.558,7.935-25.543,10.327-8.989,2.391-18.189,3.586-27.609,3.586s-18.625-1.195-27.609-3.586c-8.988-2.392-17.5-5.836-25.544-10.327-8.044-4.493-15.472-9.929-22.283-16.304-6.814-6.38-12.684-13.553-17.609-21.522-8.261-3.77-15.108-9.276-20.543-16.521-5.435-7.249-8.95-15.293-10.543-24.131-10-6.375-19.314-12.5-27.935-18.369-8.624-5.869-16.304-12.354-23.043-19.456-6.739-7.099-12.391-15.18-16.956-24.24-4.565-9.055-7.864-20.033-9.891-32.934H0L37.608,181.087c-11.739-10.87-20.944-22.751-27.609-35.652C3.332,132.537,0,117.9,0,101.521c0-13.913,2.68-27.028,8.043-39.348,5.36-12.317,12.643-23.077,21.848-32.282S49.854,13.407,62.174,8.043C74.49,2.683,87.608,0,101.521,0c13.621,0,26.631,2.574,39.022,7.717,12.391,5.146,23.369,12.5,32.935,22.065l1.304,1.522h150.434l1.305-1.522c9.565-9.565,20.544-16.919,32.935-22.065,12.391-5.143,25.397-7.717,39.022-7.717,13.912,0,27.028,2.683,39.347,8.043,12.317,5.364,23.078,12.646,32.282,21.848,9.202,9.205,16.484,19.966,21.847,32.282,5.36,12.32,8.045,25.435,8.045,39.348Zm-78.044,179.783h36.521l-31.087-109.131,5.869-5.87c4.784-4.636,9.312-9.239,13.587-13.804s8.045-9.348,11.306-14.348c3.261-5,5.831-10.469,7.717-16.413,1.882-5.941,2.826-12.609,2.826-20,0-9.708-1.848-18.839-5.544-27.392-3.696-8.549-8.733-16.012-15.107-22.391-6.381-6.376-13.843-11.413-22.392-15.108-8.554-3.696-17.684-5.544-27.391-5.544-6.814,0-12.936,.799-18.371,2.391-5.434,1.596-10.51,3.77-15.217,6.522-4.712,2.755-9.204,6.053-13.479,9.891-4.275,3.841-8.662,8.009-13.152,12.5H161.956c-4.64-4.637-9.096-8.876-13.37-12.718-4.276-3.838-8.77-7.136-13.478-9.891-4.712-2.751-9.783-4.892-15.218-6.413-5.434-1.522-11.559-2.283-18.369-2.283-9.711,0-18.804,1.848-27.282,5.544s-15.907,8.733-22.283,15.108-11.414,13.842-15.109,22.391c-3.696,8.553-5.544,17.683-5.544,27.392,0,7.391,.941,14.059,2.826,20,1.882,5.944,4.456,11.413,7.717,16.413,3.26,5,7.028,9.782,11.304,14.348,4.273,4.565,8.805,9.168,13.587,13.804l5.87,5.87-31.087,109.131h36.522v15.652c0,5.943,.723,11.923,2.174,17.934,1.447,6.016,3.512,11.74,6.196,17.174,2.68,5.435,5.978,10.51,9.891,15.217,3.913,4.711,8.404,8.733,13.479,12.065l30.87,20.653v-51.739c0-7.68,1.121-14.566,3.369-20.653,2.246-6.087,5.686-12.1,10.326-18.044l21.304-26.956c-3.624,2.031-7.466,3.043-11.522,3.043-3.336,0-6.413-.614-9.239-1.848-2.826-1.23-5.292-2.898-7.391-5-2.103-2.099-3.771-4.565-5-7.391-1.233-2.826-1.847-5.903-1.847-9.239v-31.087c0-3.186,.614-6.23,1.847-9.13,1.229-2.898,2.898-5.398,5-7.5,2.099-2.1,4.565-3.767,7.391-5,2.826-1.229,5.903-1.847,9.239-1.847,3.186,0,6.196,.618,9.022,1.847,2.826,1.233,5.326,2.935,7.5,5.108,2.174,2.174,3.875,4.674,5.108,7.5,1.229,2.826,1.848,5.835,1.848,9.022,0,3.336,.071,6.668,.217,10,.143,3.336,.218,6.668,.218,10,0,3.043-.075,6.053-.218,9.022-.146,2.972-.58,5.907-1.304,8.805l39.348-49.565c2.898-3.621,6.484-6.484,10.761-8.587,4.273-2.099,8.73-3.152,13.37-3.152s9.093,1.053,13.37,3.152c4.272,2.103,7.861,4.966,10.761,8.587l39.347,49.565c-.727-2.462-1.124-5.071-1.195-7.826-.074-2.751-.108-5.435-.108-8.043,0-3.767,.069-7.426,.215-10.978,.143-3.55,.218-7.208,.218-10.978,0-3.186,.617-6.196,1.848-9.022,1.231-2.826,2.898-5.326,5.001-7.5,2.099-2.174,4.564-3.875,7.39-5.108,2.826-1.229,5.833-1.847,9.023-1.847s6.23,.618,9.13,1.847c2.898,1.233,5.398,2.901,7.5,5,2.099,2.102,3.768,4.602,4.999,7.5,1.231,2.901,1.848,5.944,1.848,9.13v31.087c0,3.336-.617,6.413-1.848,9.239-1.231,2.826-2.9,5.292-4.999,7.391-2.101,2.103-4.602,3.77-7.5,5-2.9,1.234-5.943,1.848-9.13,1.848-4.06,0-7.901-1.012-11.521-3.043l21.304,26.956c4.636,5.945,8.076,11.957,10.326,18.044,2.245,6.087,3.369,12.972,3.369,20.653v51.739l30.87-20.653c4.925-3.332,9.381-7.354,13.369-12.065,3.985-4.707,7.318-9.782,10.001-15.217,2.68-5.434,4.746-11.158,6.197-17.174,1.446-6.012,2.173-11.991,2.173-17.934v-15.652ZM101.521,62.609c5.071,0,9.565,.798,13.479,2.391,3.913,1.597,7.534,3.696,10.87,6.304,3.332,2.609,6.484,5.51,9.456,8.696,2.969,3.189,6.121,6.379,9.457,9.565l-55.217,55.217c-3.336-3.043-6.631-6.087-9.891-9.13-3.261-3.043-6.162-6.304-8.696-9.782-2.537-3.479-4.603-7.208-6.196-11.196-1.596-3.984-2.391-8.369-2.391-13.152,0-5.36,1.012-10.434,3.043-15.217,2.028-4.783,4.817-8.913,8.369-12.391,3.55-3.479,7.68-6.23,12.391-8.261,4.708-2.028,9.816-3.043,15.326-3.043Zm54.783,265.653v70.217c0,3.043,.577,5.945,1.739,8.695,1.158,2.752,2.717,5.218,4.674,7.392,1.956,2.173,4.311,3.912,7.065,5.217,2.751,1.304,5.652,1.957,8.695,1.957,3.044,7.099,7.028,13.55,11.957,19.347,4.926,5.795,10.506,10.724,16.739,14.783,6.23,4.056,13.006,7.208,20.326,9.457,7.316,2.245,14.817,3.37,22.5,3.37,7.534,0,14.962-1.125,22.283-3.37,7.316-2.249,14.129-5.435,20.434-9.565s11.92-9.097,16.848-14.891c4.927-5.799,8.915-12.175,11.959-19.131,3.043,0,5.939-.653,8.695-1.957,2.752-1.304,5.109-3.043,7.065-5.217,1.956-2.174,3.512-4.64,4.674-7.392,1.157-2.751,1.738-5.652,1.738-8.695v-73.26c0-4.491-1.014-9.093-3.043-13.805-2.03-4.707-4.423-8.804-7.172-12.283l-71.522-90c-3.043-3.913-7.031-5.87-11.957-5.87-4.494,.435-8.261,2.174-11.305,5.217-11.885,15.364-23.988,30.401-36.304,45.109-12.32,14.711-24.277,29.891-35.87,45.543-3.336,4.495-5.869,9.06-7.609,13.697-1.739,4.639-2.609,9.782-2.609,15.435Zm140.651,0l-35.869,42.173c-1.303,1.597-2.972,2.755-4.999,3.479-2.032,.727-4.06,1.087-6.087,1.087s-4.06-.36-6.087-1.087c-2.032-.723-3.696-1.882-5-3.479l-35.869-42.173h93.912Zm-11.086,92.173c-5.076,5.506-10.4,9.745-15.977,12.718-5.582,2.968-12.212,4.456-19.892,4.456s-14.314-1.488-19.891-4.456c-5.581-2.973-10.907-7.212-15.979-12.718,5.071-1.304,9.745-3.336,14.022-6.087,4.273-2.755,7.969-6.053,11.087-9.892,3.115-3.838,5.615-8.114,7.5-12.825,1.882-4.709,2.969-9.674,3.261-14.892,.142,5.218,1.158,10.218,3.044,15,1.882,4.783,4.418,9.06,7.607,12.826,3.187,3.767,6.919,7.028,11.196,9.783,4.272,2.751,8.946,4.783,14.022,6.087ZM398.479,62.609c5.36,0,10.433,1.015,15.217,3.043,4.782,2.031,8.946,4.782,12.499,8.261,3.55,3.478,6.338,7.609,8.37,12.391,2.027,4.783,3.043,9.857,3.043,15.217,0,4.929-.799,9.348-2.391,13.261-1.597,3.913-3.696,7.575-6.304,10.978-2.608,3.407-5.544,6.668-8.805,9.782-3.261,3.118-6.489,6.196-9.673,9.239l-55.217-55.217c3.184-3.186,6.304-6.376,9.348-9.565,3.043-3.186,6.228-6.087,9.563-8.696,3.333-2.608,6.957-4.707,10.871-6.304,3.914-1.593,8.404-2.391,13.479-2.391Z" fill="#007ba2"/></svg>